<svg width="138" height="48" viewBox="0 0 138 48" fill="none" xmlns="http://www.w3.org/2000/svg">
<path d="M92.6755 3.5879C93.1559 2.92689 92.6837 2 91.8665 2H27.6748C27.5224 2 27.372 2.03482 27.2352 2.10181L3.87835 13.5334C2.92641 13.9993 3.25812 15.4316 4.31796 15.4316H69.6644C70.4789 15.4316 70.9518 16.3533 70.4766 17.0149L50.7962 44.4166C50.321 45.0782 50.7938 46 51.6084 46H106.691C106.828 46 106.962 45.9721 107.088 45.918L133.559 34.4865C134.556 34.0559 134.248 32.5684 133.162 32.5684H73.5767C72.7596 32.5684 72.2874 31.6415 72.7678 30.9805L92.6755 3.5879Z" fill="#B2D0EA" stroke="#393350" stroke-width="4"/>
<path d="M18.2299 42.0664L25.7454 17.6864H32.0602L21.4183 48H17.2154L18.2299 42.0664ZM11.294 17.6864L18.7682 42.0664L19.8448 48H15.6005L5 17.6864H11.294ZM40.2175 16V48H34.7517V16H40.2175ZM54.255 25.473L44.5033 36.4867L39.2237 41.879L37.4846 37.6109L41.5633 32.4476L47.6503 25.473H54.255ZM48.6648 48L41.7289 37.5068L45.373 33.9466L55 48H48.6648Z" fill="#393350"/>
<path d="M88.981 26.508H92.342C92.2748 27.578 91.9709 28.5279 91.4318 29.3577C90.8995 30.1875 90.1537 30.8354 89.1947 31.3012C88.243 31.767 87.0966 32 85.755 32C84.7062 32 83.7656 31.8253 82.9341 31.4759C82.1022 31.1192 81.3904 30.6097 80.7983 29.9473C80.2136 29.2849 79.7679 28.4843 79.4609 27.5453C79.1533 26.6063 79 25.5545 79 24.3899V23.2871C79 22.1225 79.157 21.0706 79.4719 20.1317C79.7942 19.1854 80.2514 18.3811 80.8434 17.7187C81.4429 17.0563 82.1584 16.5468 82.9903 16.1901C83.8218 15.8334 84.7509 15.6551 85.7776 15.6551C87.1417 15.6551 88.2918 15.8953 89.2283 16.3757C90.1726 16.8561 90.9032 17.5185 91.4202 18.3629C91.9446 19.2072 92.2596 20.1681 92.3645 21.2453H88.9926C88.9548 20.6048 88.824 20.0625 88.5989 19.6185C88.3742 19.1672 88.0331 18.8287 87.5764 18.6031C87.1265 18.3702 86.5271 18.2537 85.7776 18.2537C85.2159 18.2537 84.7251 18.3556 84.3052 18.5594C83.8858 18.7632 83.5336 19.0726 83.2486 19.4875C82.9641 19.9024 82.7504 20.4265 82.6082 21.0597C82.4733 21.6857 82.4056 22.4209 82.4056 23.2652V24.3899C82.4056 25.2124 82.4691 25.9366 82.5967 26.5626C82.7242 27.1813 82.9189 27.7054 83.1814 28.1349C83.4512 28.557 83.7955 28.8773 84.2154 29.0957C84.6422 29.3068 85.1556 29.4123 85.755 29.4123C86.4594 29.4123 87.0405 29.3031 87.4976 29.0848C87.9544 28.8664 88.3029 28.5425 88.5427 28.113C88.79 27.6836 88.9364 27.1486 88.981 26.508ZM97.591 22.5446V31.7816H94.3539V19.9679H97.4L97.591 22.5446ZM101.255 19.8915L101.199 22.8067C101.042 22.7848 100.851 22.7666 100.626 22.7521C100.409 22.7302 100.21 22.7193 100.03 22.7193C99.573 22.7193 99.1762 22.7775 98.8387 22.894C98.5091 23.0032 98.2319 23.167 98.0072 23.3854C97.7899 23.6037 97.6251 23.8694 97.5127 24.1824C97.4078 24.4954 97.3475 24.8521 97.3327 25.2524L96.6808 25.0559C96.6808 24.2916 96.7595 23.5892 96.917 22.9486C97.074 22.3008 97.3028 21.7367 97.6025 21.2562C97.9096 20.7758 98.2844 20.4046 98.7264 20.1426C99.1688 19.8805 99.6743 19.7495 100.244 19.7495C100.424 19.7495 100.608 19.7641 100.794 19.7932C100.982 19.815 101.136 19.8478 101.255 19.8915ZM108.967 29.1175V23.8548C108.967 23.4763 108.903 23.1524 108.775 22.8831C108.648 22.6065 108.449 22.3918 108.18 22.2389C107.917 22.0861 107.576 22.0096 107.157 22.0096C106.797 22.0096 106.486 22.0715 106.224 22.1953C105.962 22.3117 105.759 22.4828 105.617 22.7084C105.474 22.9268 105.403 23.1852 105.403 23.4836H102.166C102.166 22.9814 102.286 22.5046 102.526 22.0533C102.765 21.602 103.114 21.2053 103.571 20.8632C104.028 20.5138 104.572 20.2408 105.201 20.0443C105.838 19.8478 106.55 19.7495 107.336 19.7495C108.281 19.7495 109.12 19.9024 109.854 20.2081C110.589 20.5138 111.166 20.9724 111.585 21.5838C112.013 22.1953 112.226 22.9595 112.226 23.8767V28.9319C112.226 29.5797 112.267 30.1111 112.35 30.526C112.432 30.9336 112.552 31.2903 112.709 31.596V31.7816H109.439C109.281 31.4614 109.161 31.061 109.079 30.5806C109.004 30.0929 108.967 29.6052 108.967 29.1175ZM109.393 24.5864L109.416 26.3661H107.606C107.179 26.3661 106.808 26.4134 106.493 26.508C106.179 26.6027 105.92 26.7373 105.718 26.912C105.515 27.0794 105.366 27.2759 105.268 27.5016C105.178 27.7272 105.133 27.9747 105.133 28.244C105.133 28.5134 105.197 28.7572 105.324 28.9756C105.452 29.1867 105.636 29.3541 105.875 29.4778C106.115 29.5943 106.396 29.6526 106.718 29.6526C107.206 29.6526 107.629 29.5579 107.988 29.3687C108.348 29.1794 108.625 28.9465 108.82 28.6699C109.023 28.3933 109.127 28.1312 109.135 27.8838L109.989 29.2158C109.869 29.5142 109.705 29.8236 109.495 30.1439C109.293 30.4641 109.034 30.7662 108.719 31.0501C108.404 31.3267 108.026 31.556 107.584 31.7379C107.142 31.9127 106.617 32 106.01 32C105.238 32 104.538 31.8508 103.908 31.5523C103.286 31.2466 102.792 30.8281 102.425 30.2967C102.065 29.7581 101.885 29.1467 101.885 28.4624C101.885 27.8437 102.005 27.2941 102.245 26.8137C102.485 26.3333 102.837 25.9294 103.301 25.6018C103.773 25.2669 104.362 25.0158 105.066 24.8484C105.771 24.6737 106.587 24.5864 107.516 24.5864H109.393ZM119.746 29.5433C120.143 29.5433 120.495 29.4706 120.803 29.325C121.11 29.1721 121.35 28.961 121.522 28.6917C121.702 28.4151 121.795 28.0912 121.803 27.72H124.849C124.841 28.5498 124.613 29.2886 124.163 29.9364C123.714 30.577 123.111 31.0828 122.354 31.4541C121.597 31.818 120.75 32 119.813 32C118.869 32 118.045 31.8471 117.34 31.5414C116.643 31.2357 116.063 30.8135 115.598 30.2749C115.134 29.729 114.785 29.0957 114.553 28.3751C114.321 27.6472 114.204 26.8683 114.204 26.0385V25.7219C114.204 24.8848 114.321 24.106 114.553 23.3854C114.785 22.6575 115.134 22.0242 115.598 21.4855C116.063 20.9396 116.643 20.5138 117.34 20.2081C118.037 19.9024 118.854 19.7495 119.791 19.7495C120.787 19.7495 121.66 19.9351 122.41 20.3063C123.167 20.6776 123.758 21.2089 124.186 21.9005C124.62 22.5847 124.841 23.3963 124.849 24.3353H121.803C121.795 23.9422 121.709 23.5855 121.544 23.2652C121.387 22.945 121.154 22.6902 120.847 22.5009C120.548 22.3044 120.176 22.2062 119.734 22.2062C119.263 22.2062 118.877 22.3044 118.577 22.5009C118.277 22.6902 118.045 22.9523 117.88 23.2871C117.715 23.6146 117.599 23.9895 117.531 24.4117C117.472 24.8266 117.442 25.2633 117.442 25.7219V26.0385C117.442 26.4971 117.472 26.9375 117.531 27.3597C117.591 27.7818 117.704 28.1567 117.868 28.4843C118.041 28.8118 118.277 29.0702 118.577 29.2595C118.877 29.4487 119.266 29.5433 119.746 29.5433ZM129.963 15V31.7816H126.726V15H129.963ZM137.629 19.9679L132.346 25.8202L129.513 28.6044L128.333 26.3333L130.582 23.56L133.74 19.9679H137.629ZM134.268 31.7816L130.671 26.3224L132.908 24.4226L138 31.7816H134.268Z" fill="#393350"/>
</svg>
